<?xml version="1.0" encoding="UTF-8" standalone="no"?>
<!-- Created with Inkscape (http://www.inkscape.org/) -->

<svg
   xmlns:dc="http://purl.org/dc/elements/1.1/"
   xmlns:cc="http://creativecommons.org/ns#"
   xmlns:rdf="http://www.w3.org/1999/02/22-rdf-syntax-ns#"
   xmlns:svg="http://www.w3.org/2000/svg"
   xmlns="http://www.w3.org/2000/svg"
   xmlns:sodipodi="http://sodipodi.sourceforge.net/DTD/sodipodi-0.dtd"
   xmlns:inkscape="http://www.inkscape.org/namespaces/inkscape"
   width="40"
   height="40"
   viewBox="0 0 10.583333 10.583333"
   version="1.1"
   id="svg1289"
   inkscape:version="0.92.3 (2405546, 2018-03-11)"
   sodipodi:docname="googleScholar.svg"
   inkscape:export-filename="C:\Users\Katy\github\khinkelman.github.io\images\googleScholar.png"
   inkscape:export-xdpi="300"
   inkscape:export-ydpi="300">
  <defs
     id="defs1283">
    <clipPath
       id="clip0-9">
      <path
         style="clip-rule:evenodd;fill-rule:evenodd"
         inkscape:connector-curvature="0"
         id="path1106"
         d="M 76,103 H 547 V 575 H 76 Z" />
    </clipPath>
    <clipPath
       id="clip0-9-4">
      <path
         style="clip-rule:evenodd;fill-rule:evenodd"
         inkscape:connector-curvature="0"
         id="path1106-8"
         d="M 76,103 H 547 V 575 H 76 Z" />
    </clipPath>
    <clipPath
       id="clip0-6">
      <path
         style="clip-rule:evenodd;fill-rule:evenodd"
         inkscape:connector-curvature="0"
         id="path1015"
         d="m 805,210 h 340 V 551 H 805 Z" />
    </clipPath>
    <clipPath
       id="clip0-4">
      <path
         style="clip-rule:evenodd;fill-rule:evenodd"
         inkscape:connector-curvature="0"
         id="path4541-8"
         d="M 596,63 H 759 V 226 H 596 Z" />
    </clipPath>
    <clipPath
       id="clip0-6-9">
      <path
         style="clip-rule:evenodd;fill-rule:evenodd"
         inkscape:connector-curvature="0"
         id="path1015-2"
         d="m 805,210 h 340 V 551 H 805 Z" />
    </clipPath>
  </defs>
  <sodipodi:namedview
     id="base"
     pagecolor="#ffffff"
     bordercolor="#666666"
     borderopacity="1.0"
     inkscape:pageopacity="0.0"
     inkscape:pageshadow="2"
     inkscape:zoom="15.839192"
     inkscape:cx="26.144658"
     inkscape:cy="21.509953"
     inkscape:document-units="mm"
     inkscape:current-layer="layer1"
     showgrid="false"
     units="px"
     inkscape:window-width="1920"
     inkscape:window-height="1137"
     inkscape:window-x="1912"
     inkscape:window-y="-8"
     inkscape:window-maximized="1" />
  <metadata
     id="metadata1286">
    <rdf:RDF>
      <cc:Work
         rdf:about="">
        <dc:format>image/svg+xml</dc:format>
        <dc:type
           rdf:resource="http://purl.org/dc/dcmitype/StillImage" />
        <dc:title></dc:title>
      </cc:Work>
    </rdf:RDF>
  </metadata>
  <g
     inkscape:label="Layer 1"
     inkscape:groupmode="layer"
     id="layer1"
     transform="translate(0,-286.41667)">
    <g
       style="overflow:hidden"
       id="g1037"
       transform="matrix(0.03121927,0,0,0.03121927,-0.03122277,286.38545)">
      <g
         id="g1024"
         transform="translate(-805,-210)"
         clip-path="url(#clip0-6-9)">
        <path
           id="path1020"
           d="m 964.878,549.942 c -1.833,-0.073 -4.999,-0.306 -6.59,-0.483 -27.897,-3.107 -54.047,-12.559 -76.976,-27.816 -21.433,-14.264 -40.321,-34.562 -53.292,-57.269 -2.621,-4.588 -5.738,-10.74 -7.721,-15.238 -5.586,-12.67 -9.6,-26.013 -11.898,-39.54 -1.107,-6.519 -1.719,-11.844 -2.244,-19.534 -0.209,-3.071 -0.209,-16.278 0,-19.35 0.507,-7.426 1.084,-12.52 2.121,-18.737 3.961,-23.736 12.985,-46.317 26.565,-66.467 25.066,-37.193 63.733,-62.859 108.173,-71.8 5.352,-1.077 9.212,-1.574 15.765,-2.029 14.182,-0.985 28.535,-0.893 37.687,0.242 23.602,2.925 46.252,10.777 66.512,23.046 23.01,13.941 42.28,32.985 56.49,55.826 6.3,10.13 11.78,21.431 15.77,32.535 6.6,18.376 9.76,36.909 9.76,57.243 0,12.598 -0.8,21.179 -3.03,32.474 -4.21,21.356 -11.88,40.606 -23.32,58.536 -8.95,14.025 -20.13,26.882 -32.81,37.76 -19.76,16.941 -43.22,29.131 -68.68,35.684 -6.5,1.671 -14.19,3.173 -19.584,3.823 -3.52,0.425 -10.211,0.856 -16.319,1.053 -3.367,0.109 -14.037,0.136 -16.379,0.041 z m 10.837,-57.716 c 6.704,-0.267 11.126,-0.745 16.135,-1.742 10.27,-2.042 19.12,-5.458 26.32,-10.16 9.16,-5.982 15.37,-13.995 18.02,-23.274 1.17,-4.127 1.6,-7.763 1.5,-12.948 -0.1,-5.781 -0.88,-10.453 -2.59,-15.528 -2.74,-8.13 -6.63,-13.071 -15.48,-19.638 -8.92,-6.623 -11.35,-8.564 -14.15,-11.291 -4.88,-4.757 -6.677,-8.345 -6.672,-13.359 0,-2.375 0.383,-4.001 1.442,-6.116 1.47,-2.948 3.96,-5.667 9.02,-9.83 5.47,-4.5 9.09,-7.906 11.35,-10.69 3.7,-4.555 6.78,-11.199 7.97,-17.192 0.17,-0.883 0.22,-1.712 0.21,-4.067 0,-2.678 -0.03,-3.144 -0.34,-4.929 -0.4,-2.299 -1.36,-6.121 -2.4,-9.613 -1.79,-5.954 -2.73,-9.599 -2.73,-10.502 0,-1.45 1.93,-3.622 6.28,-7.066 0.64,-0.51 2.67,-2.058 4.5,-3.44 1.82,-1.382 4.98,-3.818 7.01,-5.412 9.01,-7.064 11.9,-9.157 14.16,-10.26 1.8,-0.873 1.99,-0.676 1.97,2.05 -0.02,2.64 -0.63,5.195 -2.24,9.428 -1.84,4.827 -1.91,5.682 -2.55,31.303 -0.36,14.203 -0.44,19.548 -0.44,28.961 -0.01,12.28 0.23,17.559 0.88,19.963 0.82,3.047 2.4,4.583 5.3,5.185 1.33,0.271 4.96,0.334 6.21,0.104 1.87,-0.342 3.06,-1.672 4.05,-4.541 1.74,-5.03 2.1,-13.329 1.18,-27.613 -0.65,-10.143 -0.94,-19.322 -1.17,-37.033 l -0.15,-12.57 -1.3,-3.475 c -2.61,-6.964 -3.28,-9.683 -3.13,-12.731 0.17,-3.589 1.57,-6.147 5.23,-9.576 2.93,-2.746 5.57,-5.406 5.57,-5.612 0,-0.152 -0.22,-0.207 -1.08,-0.272 -3.69,-0.277 -15.21,-0.344 -67.15,-0.391 l -56.105,-0.049 -3.695,3.282 c -8.163,7.251 -21.184,18.598 -49.265,42.932 -15.677,13.585 -20.384,17.804 -20.384,18.274 0,0.511 3.753,0.61 26.234,0.693 l 20.506,0.076 0.404,2.218 c 1.338,7.348 1.873,9.671 3.038,13.187 5.796,17.49 18.316,27.209 38.803,30.122 0.948,0.136 3.249,0.389 5.111,0.563 4.8,0.447 6.158,0.73 6.158,1.276 0,0.121 -0.141,0.633 -0.311,1.138 -1.328,3.889 -1.704,8.222 -1.006,11.577 0.441,2.113 1.084,4.281 1.899,6.407 1.263,3.292 2.223,5.145 3.818,7.374 0.502,0.702 0.895,1.291 0.873,1.308 -0.022,0.017 -1.064,0.1 -2.316,0.177 -5.733,0.364 -7.927,0.512 -9.3,0.636 -17.424,1.543 -30.638,5.514 -40.704,12.236 -6.105,4.076 -11.025,9.258 -14.808,15.597 -0.957,1.603 -3.207,6.104 -3.78,7.557 -0.972,2.472 -1.181,4.412 -1.083,10.08 0.093,5.383 0.322,6.516 2.007,9.885 3.256,6.514 8.927,12.174 17.109,17.077 2.153,1.29 6.519,3.462 9.111,4.529 5.42,2.234 12.367,4.19 17.739,4.99 4.855,0.725 12.293,1.009 19.212,0.735 z m -4.187,-9.609 c -2.163,-0.206 -6.98,-1.303 -10.866,-2.477 -16.261,-4.905 -25.728,-14.126 -27.705,-26.979 -0.267,-1.739 -0.299,-6.009 -0.057,-7.766 0.601,-4.361 2.073,-8.604 4.143,-11.945 5.821,-9.393 20.391,-16.317 36.871,-17.518 2.577,-0.187 8.466,-0.085 10.73,0.189 3.911,0.471 7.191,1.194 10.443,2.303 9.873,3.364 19.533,10.47 23.163,17.03 1.67,3.023 3.3,8.151 3.85,12.161 0.25,1.754 0.22,6.024 -0.06,7.703 -0.59,3.641 -1.81,6.967 -3.67,9.961 -2.31,3.726 -6.05,7.36 -10.35,10.06 -4.02,2.523 -10.456,5.092 -14.938,5.968 -2.163,0.422 -5.899,0.822 -10.469,1.123 -3.443,0.228 -9.567,0.33 -11.085,0.187 z m 10.44,-108.581 c -2.43,-0.199 -4.995,-0.903 -7.894,-2.166 -5.024,-2.186 -8.403,-4.588 -12.787,-9.081 -7.575,-7.767 -12.719,-17.594 -14.624,-27.938 -0.597,-3.245 -0.746,-4.985 -0.741,-8.688 0.005,-3.71 0.147,-5.288 0.737,-8.165 1.855,-9.037 6.672,-15.855 13.513,-19.121 6.083,-2.904 14.326,-2.959 20.974,-0.141 3.702,1.57 6.987,3.967 11.143,8.13 4.226,4.236 6.919,7.94 9.541,13.135 5.17,10.209 6.8,21.603 4.55,31.674 -2.1,9.392 -7.625,17.259 -14.406,20.515 -2.253,1.079 -4.335,1.645 -6.828,1.853 -1.554,0.129 -1.527,0.129 -3.178,-0.007 z"
           inkscape:connector-curvature="0"
           style="fill:#4285f4;fill-rule:evenodd" />
        <path
           id="path1022"
           d="m 1094.9,260.643 c 66.15,66.196 66.11,173.48 -0.09,239.624 -66.18,66.126 -173.425,66.104 -239.577,-0.047 L 975.045,380.407 Z"
           inkscape:connector-curvature="0"
           style="fill:#000000;fill-opacity:0.10196102;fill-rule:evenodd" />
      </g>
    </g>
  </g>
</svg>
